<?xml version="1.0" encoding="utf-8"?>
<!-- Generator: Adobe Illustrator 25.4.1, SVG Export Plug-In . SVG Version: 6.00 Build 0)  -->
<svg version="1.1" id="Layer_1" xmlns="http://www.w3.org/2000/svg" xmlns:xlink="http://www.w3.org/1999/xlink" x="0px" y="0px"
	 viewBox="0 0 24 24" style="enable-background:new 0 0 24 24;" xml:space="preserve">
<path d="M16.5,20.7c-0.4,0.4-1,0.4-1.4,0c-0.4-0.4-0.4-1,0-1.4l2.3-2.3h-6.8C8,17,6,15,6,12.5V4c0-0.6,0.4-1,1-1s1,0.4,1,1v8.5
	c0,1.4,1.1,2.5,2.5,2.5h7.3L15,12.2c-0.4-0.4-0.4-1,0-1.4s1-0.4,1.4,0l4.3,4.2c0.2,0.2,0.3,0.4,0.3,0.7c0,0.3-0.1,0.5-0.3,0.7
	L16.5,20.7z"/>
</svg>
