<svg xmlns="http://www.w3.org/2000/svg" fill="none" stroke="currentColor" stroke-width="2" viewBox="0 0 24 24"><path stroke-linecap="round" stroke-linejoin="round" d="M9 15.5H7.5C6.10444 15.5 5.40665 15.5 4.83886 15.6722C3.56045 16.06 2.56004 17.0605 2.17224 18.3389C2 18.9067 2 19.6044 2 21M14.5 7.5C14.5 9.98528 12.4853 12 10 12C7.51472 12 5.5 9.98528 5.5 7.5C5.5 5.01472 7.51472 3 10 3C12.4853 3 14.5 5.01472 14.5 7.5ZM11 21L14.1014 20.1139C14.2499 20.0715 14.3241 20.0502 14.3934 20.0184C14.4549 19.9902 14.5134 19.9558 14.5679 19.9158C14.6293 19.8707 14.6839 19.8161 14.7932 19.7068L21.25 13.25C21.9404 12.5597 21.9404 11.4403 21.25 10.75C20.5597 10.0596 19.4404 10.0596 18.75 10.75L12.2932 17.2068C12.1839 17.3161 12.1293 17.3707 12.0842 17.4321C12.0442 17.4866 12.0098 17.5451 11.9816 17.6066C11.9497 17.6759 11.9285 17.7501 11.8861 17.8987L11 21Z"/></svg>
